<svg xmlns="http://www.w3.org/2000/svg" xmlns:xlink="http://www.w3.org/1999/xlink" width="16" height="16" viewBox="0 0 16 16"><defs><path id="jln3a" d="M414.878 4662.31v10.19h2.924v-10.19zm1.388-1.274c1.099 0 1.783-.782 1.783-1.77-.021-1.005-.684-1.766-1.763-1.766-1.08 0-1.786.763-1.786 1.77 0 .987.686 1.766 1.744 1.766zM429.5 4672.5v-5.666c0-3.156-1.632-4.622-3.71-4.622-1.675 0-2.725.998-2.919 1.697v-1.599h-3.284c.042.85 0 10.19 0 10.19h3.284v-5.514c0-.307-.013-.613.072-.833.226-.613.71-1.249 1.583-1.249 1.14 0 1.659.943 1.659 2.323v5.273z"/></defs><g><g transform="translate(-414 -4657)"><use fill="#00daab" xlink:href="#jln3a"/></g></g></svg>