<svg xmlns="http://www.w3.org/2000/svg" xmlns:xlink="http://www.w3.org/1999/xlink" width="18" height="18" viewBox="0 0 18 18"><defs><path id="b249a" d="M1617 5730c-4.972 0-9 4.13-9 9.227 0 4.076 2.579 7.537 6.155 8.756.452.084.615-.198.615-.444 0-.22-.008-.8-.011-1.568-2.505.555-3.032-1.238-3.032-1.238-.41-1.067-1-1.352-1-1.352-.817-.57.062-.558.062-.558.903.066 1.377.949 1.377.949.803 1.411 2.106 1.003 2.62.769.081-.598.316-1.004.57-1.235-1.997-.231-4.098-1.024-4.098-4.56 0-1.009.351-1.832.925-2.478-.09-.23-.4-1.17.088-2.441 0 0 .756-.247 2.476.946a8.406 8.406 0 0 1 2.253-.31 8.406 8.406 0 0 1 2.253.31c1.72-1.193 2.473-.946 2.473-.946.492 1.27.184 2.21.09 2.441.577.646.923 1.47.923 2.479 0 3.544-2.103 4.322-4.107 4.553.322.283.609.847.609 1.707 0 1.234-.008 2.228-.008 2.532 0 .246.16.534.618.444 3.573-1.222 6.149-4.68 6.149-8.756 0-5.097-4.028-9.227-9-9.227z"/></defs><g><g transform="translate(-1608 -5730)"><use fill="#fff" xlink:href="#b249a"/></g></g></svg>